HIERARCHY
ROOT Hips
{
	OFFSET 0.000000 0.000000 0.000000
	CHANNELS 6 Xposition Yposition Zposition Xrotation Yrotation Zrotation
	JOINT LeftUpLeg_virtual
	{
		OFFSET 0.000000 0.000000 0.000000
		CHANNELS 3 Xrotation Yrotation Zrotation
		JOINT LeftUpLeg
		{
			OFFSET 15.427100 -6.655098 0.678600
			CHANNELS 3 Xrotation Yrotation Zrotation
			JOINT LeftLeg
			{
				OFFSET 4.081073 -39.591068 13.024000
				CHANNELS 3 Xrotation Yrotation Zrotation
				JOINT LeftFoot
				{
					OFFSET -4.081074 -37.707932 -15.979700
					CHANNELS 3 Xrotation Yrotation Zrotation
					JOINT LeftToeBase
					{
						OFFSET 5.346399 -15.068900 20.645000
						CHANNELS 3 Xrotation Yrotation Zrotation
						JOINT LeftToe_End
						{
							OFFSET 2.754700 0.931300 11.300900
							CHANNELS 3 Xrotation Yrotation Zrotation
							End Site
							{
								OFFSET 0 0 0
							}
						}
					}
				}
			}
		}
	}
	JOINT RightUpLeg_virtual
	{
		OFFSET 0.000000 0.000000 0.000000
		CHANNELS 3 Xrotation Yrotation Zrotation
		JOINT RightUpLeg
		{
			OFFSET -15.569500 -6.655098 0.678600
			CHANNELS 3 Xrotation Yrotation Zrotation
			JOINT RightLeg
			{
				OFFSET -4.081825 -39.591045 13.023800
				CHANNELS 3 Xrotation Yrotation Zrotation
				JOINT RightFoot
				{
					OFFSET 4.081824 -37.707954 -15.979600
					CHANNELS 3 Xrotation Yrotation Zrotation
					JOINT RightToeBase
					{
						OFFSET -5.346400 -15.068900 20.645000
						CHANNELS 3 Xrotation Yrotation Zrotation
						JOINT RightToe_End
						{
							OFFSET -2.754700 0.931300 11.300900
							CHANNELS 3 Xrotation Yrotation Zrotation
							End Site
							{
								OFFSET 0 0 0
							}
						}
					}
				}
			}
		}
	}
	JOINT Spine_virtual
	{
		OFFSET 0.000000 0.000000 0.000000
		CHANNELS 3 Xrotation Yrotation Zrotation
		JOINT Spine
		{
			OFFSET -0.279200 12.230698 -2.892100
			CHANNELS 3 Xrotation Yrotation Zrotation
			JOINT Spine1
			{
				OFFSET -0.232667 10.192268 -1.242267
				CHANNELS 3 Xrotation Yrotation Zrotation
				JOINT Spine1_split
				{
					OFFSET -0.232667 10.192268 -1.242267
					CHANNELS 3 Xrotation Yrotation Zrotation
					JOINT Spine2
					{
						OFFSET -0.232667 10.192268 -1.242267
						CHANNELS 3 Xrotation Yrotation Zrotation
						JOINT Neck_virtual
						{
							OFFSET 0.000000 0.000000 0.000000
							CHANNELS 3 Xrotation Yrotation Zrotation
							JOINT Neck
							{
								OFFSET -0.418800 17.814194 8.416900
								CHANNELS 3 Xrotation Yrotation Zrotation
								JOINT Head
								{
									OFFSET 0.000000 7.031097 3.806800
									CHANNELS 3 Xrotation Yrotation Zrotation
									JOINT HeadTop_End
									{
										OFFSET 0.000000 24.646606 12.978600
										CHANNELS 3 Xrotation Yrotation Zrotation
										End Site
										{
											OFFSET 0 0 0
										}
									}
								}
							}
						}
						JOINT LeftShoulder_virtual
						{
							OFFSET 0.000000 0.000000 0.000000
							CHANNELS 3 Xrotation Yrotation Zrotation
							JOINT LeftShoulder
							{
								OFFSET 8.476499 7.247704 -3.868750
								CHANNELS 3 Xrotation Yrotation Zrotation
								JOINT LeftShoulder_split
								{
									OFFSET 8.476499 7.247704 -3.868750
									CHANNELS 3 Xrotation Yrotation Zrotation
									JOINT LeftArm
									{
										OFFSET 9.308998 -2.777710 0.208600
										CHANNELS 3 Xrotation Yrotation Zrotation
										JOINT LeftForeArm
										{
											OFFSET 29.972298 0.000000 0.000000
											CHANNELS 3 Xrotation Yrotation Zrotation
											JOINT LeftHand
											{
												OFFSET 26.026505 0.000000 0.000000
												CHANNELS 3 Xrotation Yrotation Zrotation
												End Site
												{
													OFFSET 0 0 0
												}
											}
										}
									}
								}
							}
						}
						JOINT RightShoulder_virtual
						{
							OFFSET 0.000000 0.000000 0.000000
							CHANNELS 3 Xrotation Yrotation Zrotation
							JOINT RightShoulder
							{
								OFFSET -7.570500 7.247704 -3.868750
								CHANNELS 3 Xrotation Yrotation Zrotation
								JOINT RightShoulder_split
								{
									OFFSET -7.570500 7.247704 -3.868750
									CHANNELS 3 Xrotation Yrotation Zrotation
									JOINT RightArm
									{
										OFFSET -9.308998 -2.777710 0.208500
										CHANNELS 3 Xrotation Yrotation Zrotation
										JOINT RightForeArm
										{
											OFFSET -29.972300 0.000000 0.000000
											CHANNELS 3 Xrotation Yrotation Zrotation
											JOINT RightHand
											{
												OFFSET -26.026505 0.000000 0.000000
												CHANNELS 3 Xrotation Yrotation Zrotation
												End Site
												{
													OFFSET 0 0 0
												}
											}
										}
									}
								}
							}
						}
					}
				}
			}
		}
	}
}
MOTION
Frames: 6
Frame Time: 0.03333333
1.071550 97.620277 -0.670689 0.000000 0.000000 0.000000 -3.751392 -5.192696 -3.902675 -10.206496 14.659913 11.519099 12.134114 1.647992 4.070527 0.796284 0.795108 -8.235406 -4.940033 -0.000000 0.000003 0.000000 0.000000 0.000000 -3.751392 -5.192696 -3.902675 3.685595 -10.084189 1.720621 6.593196 -8.483806 -2.382542 -5.337980 -3.058912 4.999667 -7.282874 0.000000 0.000002 0.000000 0.000000 0.000000 -3.751392 -5.192696 -3.902675 3.292087 1.532467 2.880676 1.151564 0.341255 1.563088 0.000000 0.000000 0.000000 0.000000 0.000000 0.000000 1.124399 0.369602 1.558065 5.626312 -0.076130 0.454684 -7.563351 1.377077 -0.080249 0.000000 0.000000 0.000000 1.124399 0.369602 1.558065 1.046817 -17.441250 -12.316045 0.000000 0.000000 0.000000 3.916272 -19.989254 -69.765219 -0.000011 -1.459368 -0.000004 0.000000 0.000000 0.000000 1.124399 0.369602 1.558065 1.209146 15.345166 14.705935 0.000000 0.000000 0.000000 13.158864 27.555135 58.785171 -0.000002 6.693727 -0.000003 0.000000 0.000000 0.000000 
1.095865 97.582611 -0.687504 0.000000 0.000000 0.000000 -3.795888 -5.488224 -3.989224 -10.184897 14.672018 11.697547 12.311093 1.890911 4.007646 0.620788 0.815987 -8.257906 -4.940029 -0.000007 0.000000 0.000000 0.000000 0.000000 -3.795888 -5.488224 -3.989224 3.557679 -10.095715 1.924294 6.692135 -7.835425 -2.507669 -5.286912 -3.412377 4.881250 -7.282879 0.000014 0.000002 0.000000 0.000000 0.000000 -3.795888 -5.488224 -3.989224 3.291585 1.531659 2.899466 1.151564 0.341255 1.563088 0.000000 0.000000 0.000000 0.000000 0.000000 0.000000 1.124400 0.369602 1.558065 5.658004 -0.073426 0.433888 -7.562017 1.396771 -0.134893 0.000000 0.000000 0.000000 1.124400 0.369602 1.558065 1.049204 -17.430815 -12.315330 0.000000 0.000000 0.000000 3.861908 -20.202549 -69.781352 -0.000001 -1.523119 0.000005 0.000000 0.000000 0.000000 1.124400 0.369602 1.558065 1.206564 15.367490 14.694090 0.000000 0.000000 0.000000 13.125064 27.554855 58.770738 -0.000010 6.622057 0.000018 0.000000 0.000000 0.000000 
1.117188 97.529091 -0.698280 0.000000 0.000000 0.000000 -3.845867 -5.804706 -4.072480 -10.165898 14.687840 11.885132 12.528290 2.146526 3.940378 0.412609 0.840169 -8.292861 -4.940033 -0.000002 0.000004 0.000000 0.000000 0.000000 -3.845867 -5.804706 -4.072480 3.406206 -10.099179 2.120248 6.852586 -7.185724 -2.633163 -5.268135 -3.755849 4.765503 -7.287778 -0.000000 -0.000001 0.000000 0.000000 0.000000 -3.845867 -5.804706 -4.072480 3.291229 1.530825 2.913044 1.151563 0.341255 1.563088 0.000000 0.000000 0.000000 0.000000 0.000000 0.000000 1.124399 0.369602 1.558064 5.693598 -0.068301 0.415616 -7.559570 1.446650 -0.179898 0.000000 0.000000 0.000000 1.124399 0.369602 1.558064 1.050917 -17.423336 -12.314826 0.000000 0.000000 0.000000 3.808589 -20.203676 -69.807928 0.000008 -1.531671 -0.000006 0.000000 0.000000 0.000000 1.124399 0.369602 1.558064 1.199732 15.377517 14.710612 0.000000 0.000000 0.000000 13.152624 27.622926 58.680505 -0.000004 6.503547 -0.000005 0.000000 0.000000 0.000000 
1.137669 97.469131 -0.702271 0.000000 0.000000 0.000000 -3.900700 -6.139736 -4.160733 -10.143717 14.709046 12.086456 12.764427 2.412842 3.870732 0.195390 0.863679 -8.342863 -4.940033 -0.000003 -0.000000 0.000000 0.000000 0.000000 -3.900700 -6.139736 -4.160733 3.252854 -10.099726 2.318216 7.032373 -6.519334 -2.751784 -5.259802 -4.098093 4.642588 -7.299796 0.000004 -0.000001 0.000000 0.000000 0.000000 -3.900700 -6.139736 -4.160733 3.290831 1.529810 2.932949 1.151564 0.344954 1.563088 0.000000 0.000000 0.000000 0.000000 0.000000 0.000000 1.124399 0.369601 1.564418 5.730486 -0.065324 0.401213 -7.556038 1.513081 -0.218140 0.000000 0.000000 0.000000 1.124399 0.369601 1.564418 1.053011 -17.414189 -12.314193 0.000000 0.000000 0.000000 3.768650 -20.016614 -69.831588 -0.000002 -1.492141 -0.000002 0.000000 0.000000 0.000000 1.124399 0.369601 1.564418 1.187784 15.381769 14.752399 0.000000 0.000000 0.000000 13.268582 27.793933 58.482901 -0.000000 6.357389 -0.000007 0.000000 0.000000 0.000000 
1.158455 97.407860 -0.700874 0.000000 0.000000 0.000000 -3.960901 -6.488377 -4.248443 -10.108986 14.733136 12.290197 13.002144 2.688068 3.800100 -0.015649 0.888923 -8.409718 -4.940033 -0.000009 0.000001 0.000000 0.000000 0.000000 -3.960901 -6.488377 -4.248443 3.103578 -10.100104 2.514110 7.219453 -5.845313 -2.870447 -5.255238 -4.439780 4.519022 -7.309937 -0.000002 -0.000000 0.000000 0.000000 0.000000 -3.960901 -6.488377 -4.248443 3.290373 1.532134 2.954662 1.151563 0.348858 1.567591 0.000000 0.000000 0.000000 0.000000 0.000000 0.000000 1.124400 0.374511 1.572563 5.766739 -0.063443 0.390193 -7.547625 1.558060 -0.262354 0.000000 0.000000 0.000000 1.124400 0.374511 1.572563 1.057807 -17.393217 -12.312763 0.000000 0.000000 0.000000 3.758151 -19.732138 -69.832086 -0.000002 -1.420460 0.000007 0.000000 0.000000 0.000000 1.124400 0.374511 1.572563 1.178336 15.402406 14.787812 0.000000 0.000000 0.000000 13.468009 28.056751 58.208867 -0.000007 6.243471 -0.000005 0.000000 0.000000 0.000000 
1.181062 97.348969 -0.695778 0.000000 0.000000 0.000000 -4.025022 -6.846511 -4.326216 -10.052283 14.756583 12.480852 13.225833 2.974839 3.728906 -0.215407 0.915872 -8.491209 -4.940033 -0.000009 -0.000000 0.000000 0.000000 0.000000 -4.025022 -6.846511 -4.326216 2.956909 -10.103984 2.697049 7.410470 -5.166182 -2.989370 -5.251978 -4.780682 4.396816 -7.319069 0.000004 -0.000001 0.000000 0.000000 0.000000 -4.025022 -6.846511 -4.326216 3.289887 1.536414 2.977683 1.151563 0.356537 1.578239 0.000000 0.000000 0.000000 0.000000 0.000000 0.000000 1.124399 0.381294 1.583577 5.800807 -0.062504 0.381137 -7.524192 1.574236 -0.320530 0.000000 0.000000 0.000000 1.124399 0.381294 1.583577 1.058661 -17.352195 -12.300419 0.000000 0.000000 0.000000 3.778534 -19.441715 -69.801480 0.000009 -1.327805 -0.000000 0.000000 0.000000 0.000000 1.124399 0.381294 1.583577 1.180832 15.472178 14.771835 0.000000 0.000000 0.000000 13.716036 28.359716 57.924997 -0.000012 6.249316 -0.000002 0.000000 0.000000 0.000000 
